<?xml version="1.0" encoding="UTF-8"?>
<svg id="Capa_1" xmlns="http://www.w3.org/2000/svg" version="1.1" viewBox="0 0 505.55 499.82">
  <!-- Generator: Adobe Illustrator 29.0.0, SVG Export Plug-In . SVG Version: 2.1.0 Build 186)  -->
  <defs>
    <style>
      .st0 {
        fill: #e43d30;
      }

      .st1, .st2 {
        stroke: #1d1d1b;
        stroke-miterlimit: 10;
        stroke-width: 3px;
      }

      .st1, .st2, .st3 {
        fill: #13110c;
      }

      .st4 {
        fill: #1d1d1b;
      }

      .st2 {
        fill-rule: evenodd;
      }

      .st5 {
        fill: #fd0;
      }

      .st6 {
        fill: #00953b;
      }

      .st7 {
        fill: #004987;
      }
    </style>
  </defs>
  <g>
    <path class="st3" d="M222.74,193.02h-13.46l-.8-6.29c-1.95,2.3-4.49,4.18-7.61,5.62-3.13,1.45-6.99,2.17-11.6,2.17-4.19,0-8.13-.68-11.82-2.04-3.69-1.36-6.98-3.41-9.87-6.15-2.89-2.75-5.15-6.18-6.77-10.32-1.62-4.13-2.44-8.88-2.44-14.26,0-5.08.77-9.71,2.3-13.9,1.53-4.19,3.76-7.82,6.68-10.89,2.92-3.07,6.45-5.43,10.58-7.08,4.13-1.65,8.74-2.48,13.81-2.48,7.91,0,14.61,2.04,20.1,6.11,5.49,4.07,8.85,9.92,10.09,17.53h-19.83c-.77-2.6-2.07-4.59-3.9-5.98-1.83-1.39-4.1-2.08-6.82-2.08-4.02,0-7.04,1.67-9.08,5-2.04,3.34-3.05,7.9-3.05,13.68,0,2.42.22,4.65.66,6.68.44,2.04,1.17,3.85,2.17,5.45,1,1.59,2.38,2.85,4.12,3.76,1.74.92,3.88,1.37,6.42,1.37,2.24,0,4.46-.69,6.64-2.08,2.18-1.39,3.54-3.14,4.07-5.27h-9.21v-13.81h28.6v35.24Z"/>
    <path class="st3" d="M254.97,170.62v22.22h-20.9v-63.75h30.11c10.39,0,17.69,1.43,21.92,4.29,4.22,2.86,6.33,7.48,6.33,13.86,0,3.84-.9,7.14-2.7,9.92-1.8,2.78-4.47,4.66-8.01,5.67,2.13.77,3.76,1.46,4.91,2.08,1.15.62,2.18,1.49,3.1,2.61.91,1.12,1.61,2.66,2.08,4.6.47,1.95.71,4.49.71,7.62,0,4.78.12,7.84.35,9.16.23,1.33.86,1.99,1.86,1.99v1.95h-21.16c-.3-.77-.55-2.17-.75-4.21-.21-2.04-.31-4.35-.31-6.95,0-2.24-.13-4.04-.4-5.4-.27-1.36-.78-2.45-1.55-3.28-.77-.83-1.87-1.43-3.32-1.82-1.45-.38-3.41-.58-5.89-.58h-6.38ZM254.97,156.63h8.23c3.36,0,5.86-.47,7.48-1.42,1.62-.94,2.44-2.48,2.44-4.6s-.77-3.84-2.3-4.96c-1.54-1.12-3.57-1.68-6.11-1.68h-9.74v12.66Z"/>
    <path class="st3" d="M303.75,129.09h20.9v38.16c0,1.77.12,3.34.35,4.69.23,1.36.69,2.57,1.37,3.63.68,1.06,1.68,1.89,3.01,2.48,1.33.59,3.02.89,5.09.89,3.54,0,6.05-1.02,7.53-3.05,1.47-2.04,2.21-4.91,2.21-8.63v-38.16h20.9v36.04c0,10.21-2.45,17.66-7.35,22.36-4.9,4.69-12.66,7.04-23.29,7.04-5.08,0-9.51-.52-13.28-1.55-3.78-1.03-6.97-2.7-9.56-5-2.6-2.3-4.56-5.34-5.89-9.12-1.33-3.78-1.99-8.38-1.99-13.81v-35.95Z"/>
    <path class="st3" d="M376.36,192.84v-63.75h30.73c8.97,0,15.75,1.9,20.32,5.71,4.57,3.81,6.86,9.08,6.86,15.81,0,7.08-2.18,12.59-6.55,16.51-4.37,3.93-11.01,5.89-19.92,5.89h-10.54v19.83h-20.9ZM405.93,158.13c2.6,0,4.65-.59,6.15-1.77,1.5-1.18,2.26-3.07,2.26-5.67,0-1.42-.35-2.57-1.06-3.45-.71-.89-1.61-1.56-2.7-2.04-1.09-.47-2.27-.8-3.54-.97-1.27-.18-2.55-.27-3.85-.27h-5.93v14.17h8.68Z"/>
    <path class="st3" d="M486.64,130.11c4.22,1.8,7.73,4.28,10.54,7.44,2.8,3.16,4.9,6.72,6.29,10.67,1.39,3.96,2.08,8.09,2.08,12.4,0,5.31-.84,10.08-2.52,14.3-1.68,4.22-4.04,7.79-7.08,10.71-3.04,2.92-6.6,5.14-10.67,6.64-4.07,1.5-8.47,2.26-13.19,2.26-4.96,0-9.49-.75-13.59-2.26-4.1-1.5-7.63-3.73-10.58-6.69-2.95-2.95-5.22-6.55-6.82-10.8-1.59-4.25-2.39-9.03-2.39-14.34,0-4.9.8-9.4,2.39-13.5,1.59-4.1,3.88-7.62,6.86-10.54,2.98-2.92,6.52-5.15,10.63-6.68,4.1-1.53,8.6-2.3,13.5-2.3,5.49,0,10.34.9,14.57,2.7ZM466.14,144.54c-1.59,1.03-2.88,2.39-3.85,4.07-.97,1.68-1.67,3.56-2.08,5.62-.41,2.07-.62,4.19-.62,6.37s.19,4.41.58,6.51c.38,2.1,1.05,4.04,1.99,5.84.94,1.8,2.24,3.25,3.9,4.34,1.65,1.09,3.66,1.64,6.02,1.64,4.31,0,7.48-1.65,9.52-4.96,2.04-3.31,3.05-7.76,3.05-13.37,0-2.24-.24-4.41-.71-6.51-.47-2.09-1.23-3.98-2.26-5.67-1.03-1.68-2.36-3.01-3.99-3.98-1.62-.97-3.56-1.46-5.8-1.46s-4.16.52-5.75,1.55Z"/>
  </g>
  <path class="st3" d="M203.07,216.5c6.06,2.59,11.11,6.15,15.14,10.69,4.03,4.54,7.04,9.65,9.04,15.34,1.99,5.69,2.99,11.62,2.99,17.82,0,7.64-1.21,14.49-3.63,20.55-2.42,6.07-5.81,11.2-10.18,15.4-4.37,4.2-9.48,7.38-15.34,9.55-5.85,2.16-12.18,3.25-18.96,3.25-7.13,0-13.64-1.08-19.53-3.25-5.9-2.16-10.97-5.36-15.21-9.61-4.24-4.24-7.51-9.42-9.8-15.53-2.29-6.11-3.44-12.98-3.44-20.62,0-7.04,1.15-13.51,3.44-19.41,2.29-5.9,5.58-10.94,9.86-15.14,4.28-4.2,9.37-7.4,15.27-9.61,5.9-2.21,12.36-3.31,19.41-3.31,7.89,0,14.87,1.29,20.94,3.88ZM173.61,237.24c-2.29,1.49-4.14,3.44-5.54,5.85-1.4,2.42-2.4,5.11-2.99,8.08-.59,2.97-.89,6.02-.89,9.16s.27,6.34.83,9.35c.55,3.01,1.5,5.81,2.86,8.4,1.36,2.59,3.22,4.67,5.6,6.24,2.37,1.57,5.26,2.35,8.65,2.35,6.19,0,10.75-2.37,13.68-7.13,2.93-4.75,4.39-11.15,4.39-19.22,0-3.22-.34-6.34-1.02-9.35-.68-3.01-1.76-5.73-3.25-8.14-1.48-2.42-3.39-4.33-5.73-5.73-2.33-1.4-5.11-2.1-8.34-2.1s-5.98.75-8.27,2.23Z"/>
  <path class="st3" d="M264.27,274.72v31.94h-30.03v-91.63h43.27c14.93,0,25.43,2.06,31.5,6.17,6.07,4.12,9.1,10.75,9.1,19.92,0,5.52-1.29,10.27-3.88,14.25-2.59,3.99-6.43,6.7-11.52,8.14,3.05,1.1,5.41,2.1,7.06,2.99,1.65.89,3.14,2.14,4.46,3.75,1.31,1.61,2.31,3.82,2.99,6.62.68,2.8,1.02,6.45,1.02,10.94,0,6.87.17,11.26.51,13.17.34,1.91,1.23,2.86,2.67,2.86v2.8h-30.42c-.43-1.1-.79-3.12-1.08-6.05-.3-2.93-.44-6.26-.44-9.99,0-3.22-.19-5.81-.57-7.76-.38-1.95-1.12-3.52-2.23-4.71-1.11-1.19-2.7-2.06-4.77-2.61-2.08-.55-4.9-.83-8.46-.83h-9.16ZM264.27,254.62h11.83c4.84,0,8.42-.68,10.75-2.04,2.33-1.36,3.5-3.56,3.5-6.62s-1.1-5.51-3.31-7.13c-2.21-1.61-5.13-2.42-8.78-2.42h-14v18.2Z"/>
  <path class="st3" d="M327.27,215.04h84v24.05h-26.98v67.58h-30.04v-67.58h-26.98v-24.05Z"/>
  <path class="st3" d="M424.88,306.67v-91.63h74.71v21.38h-44.67v13.11h37.8v21.38h-37.8v14.38h46.45v21.38h-76.49Z"/>
  <g>
    <g>
      <path class="st3" d="M28.1,341.07h41.85v11.98h-13.44v33.67h-14.97v-33.67h-13.44v-11.98Z"/>
      <path class="st3" d="M67.98,386.72l16.36-45.66h15.22l16.36,45.66h-14.9l-1.78-6.02h-14.9l-1.71,6.02h-14.65ZM91.83,354.83l-4.63,16.36h9.45l-4.82-16.36Z"/>
      <path class="st3" d="M121.44,386.72v-45.66h37.22v10.65h-22.26v6.53h18.83v10.65h-18.83v7.17h23.14v10.65h-38.11Z"/>
      <path class="st3" d="M167.16,341.07h14.96v14.77l13.13-14.77h17.56l-16.68,17.18,18.45,28.47h-17.94l-10.97-18.2-3.55,3.74v14.46h-14.96v-45.66Z"/>
      <path class="st3" d="M258.53,369.29h.13l5.14-28.22h14.46l-11.35,45.66h-14.71l-5.26-26.51h-.13l-5.2,26.51h-14.71l-11.35-45.66h14.46l5.14,28.22h.13l5.45-28.22h12.37l5.45,28.22Z"/>
      <path class="st3" d="M315.44,341.8c3.02,1.29,5.54,3.07,7.55,5.33,2.01,2.26,3.51,4.81,4.5,7.64.99,2.83,1.49,5.79,1.49,8.88,0,3.8-.6,7.22-1.81,10.24-1.21,3.02-2.9,5.58-5.07,7.67-2.18,2.09-4.72,3.68-7.64,4.76-2.92,1.08-6.07,1.62-9.45,1.62-3.55,0-6.8-.54-9.73-1.62-2.94-1.08-5.46-2.67-7.58-4.79-2.11-2.11-3.74-4.69-4.88-7.74-1.14-3.04-1.71-6.47-1.71-10.27,0-3.51.57-6.73,1.71-9.67,1.14-2.94,2.78-5.45,4.91-7.55,2.13-2.09,4.67-3.69,7.61-4.79,2.94-1.1,6.16-1.65,9.67-1.65,3.93,0,7.41.64,10.43,1.93ZM300.76,352.13c-1.14.74-2.06,1.71-2.76,2.92-.7,1.21-1.19,2.55-1.49,4.03-.3,1.48-.44,3-.44,4.57s.14,3.16.41,4.66c.28,1.5.75,2.9,1.43,4.18.67,1.29,1.6,2.33,2.79,3.11,1.18.78,2.62,1.17,4.31,1.17,3.09,0,5.36-1.18,6.82-3.55,1.46-2.37,2.19-5.56,2.19-9.57,0-1.61-.17-3.16-.51-4.66-.34-1.5-.88-2.85-1.62-4.06-.74-1.21-1.69-2.16-2.85-2.85-1.16-.7-2.55-1.05-4.15-1.05s-2.98.37-4.12,1.11Z"/>
      <path class="st3" d="M366.14,365.99l-.57-10.4v-14.52h14.33v45.66h-14.01l-16.3-24.86.57,10.4v14.46h-14.33v-45.66h14.01l16.3,24.92Z"/>
      <path class="st3" d="M409.18,386.72v-45.66h20.04c7.57,0,13.43,1.81,17.6,5.42,4.16,3.61,6.25,9.1,6.25,16.46,0,4.23-.56,7.85-1.68,10.88-1.12,3.02-2.74,5.48-4.85,7.39-2.11,1.9-4.65,3.3-7.61,4.18-2.96.89-6.32,1.33-10.08,1.33h-19.66ZM424.15,376.07h3.17c3.55,0,6.24-.99,8.05-2.98,1.82-1.99,2.73-5.09,2.73-9.32,0-4.65-.82-7.82-2.47-9.51-1.65-1.69-4.52-2.54-8.62-2.54h-2.85v24.35Z"/>
      <path class="st3" d="M491.2,341.8c3.02,1.29,5.54,3.07,7.55,5.33,2.01,2.26,3.51,4.81,4.5,7.64.99,2.83,1.49,5.79,1.49,8.88,0,3.8-.6,7.22-1.81,10.24-1.21,3.02-2.9,5.58-5.07,7.67-2.18,2.09-4.72,3.68-7.64,4.76-2.92,1.08-6.07,1.62-9.45,1.62-3.55,0-6.8-.54-9.73-1.62-2.94-1.08-5.46-2.67-7.58-4.79-2.11-2.11-3.74-4.69-4.88-7.74-1.14-3.04-1.71-6.47-1.71-10.27,0-3.51.57-6.73,1.71-9.67,1.14-2.94,2.78-5.45,4.91-7.55,2.13-2.09,4.67-3.69,7.61-4.79,2.94-1.1,6.16-1.65,9.67-1.65,3.93,0,7.41.64,10.43,1.93ZM476.52,352.13c-1.14.74-2.06,1.71-2.76,2.92-.7,1.21-1.19,2.55-1.49,4.03-.3,1.48-.44,3-.44,4.57s.14,3.16.41,4.66c.28,1.5.75,2.9,1.43,4.18.67,1.29,1.6,2.33,2.79,3.11,1.18.78,2.62,1.17,4.31,1.17,3.09,0,5.36-1.18,6.82-3.55,1.46-2.37,2.19-5.56,2.19-9.57,0-1.61-.17-3.16-.51-4.66-.34-1.5-.88-2.85-1.62-4.06-.74-1.21-1.69-2.16-2.85-2.85-1.16-.7-2.55-1.05-4.15-1.05s-2.98.37-4.12,1.11Z"/>
    </g>
    <rect class="st3" x="384.61" y="358.03" width="19.87" height="9.67"/>
  </g>
  <g>
    <g>
      <path class="st5" d="M180.63,472.23l-7.65-20.73c-1.55-4.21-6.26-6.38-10.53-4.85-4.27,1.53-6.46,6.18-4.91,10.39l7.65,20.73c1.55,4.21,6.26,6.37,10.53,4.84,4.26-1.53,6.46-6.18,4.91-10.39"/>
      <path class="st3" d="M244.6,481.4c-1.55-4.21-6.27-6.37-10.53-4.84l-21.01,7.53c-4.26,1.54-6.47,6.19-4.91,10.39,1.55,4.21,6.27,6.38,10.53,4.85l21.01-7.54c4.27-1.53,6.46-6.18,4.91-10.39"/>
      <path class="st6" d="M200.78,472.01l-11.77-31.9c-1.55-4.21-6.27-6.38-10.53-4.85-4.26,1.52-6.46,6.18-4.91,10.38l11.77,31.91c1.54,4.2,6.26,6.37,10.52,4.85,4.26-1.54,6.46-6.18,4.91-10.39"/>
      <path class="st0" d="M238.03,464.36l-13.71-37.15c-1.55-4.2-6.27-6.38-10.53-4.85-4.26,1.52-6.46,6.18-4.91,10.39l13.7,37.15c1.55,4.21,6.27,6.38,10.53,4.85,4.27-1.54,6.46-6.18,4.91-10.39"/>
      <path class="st7" d="M220.18,469.96l-14.64-39.7c-1.55-4.2-6.27-6.38-10.53-4.84-4.26,1.53-6.46,6.17-4.91,10.38l14.64,39.69c1.56,4.21,6.27,6.38,10.53,4.85,4.26-1.53,6.46-6.19,4.91-10.38"/>
      <path class="st3" d="M365.86,421.65v14.61h-11.76c-2.3,0-4.54.49-6.73,1.46-2.19.98-4.14,2.28-5.84,3.86-1.7,1.6-3.08,3.42-4.13,5.47-1.04,2.05-1.57,4.14-1.57,6.29v6.43h18.27v12.77h-18.27v10.66h-16.01v-10.66h-6.87l6.87-10.65v-8.54c0-4.29.93-8.36,2.8-12.22,1.86-3.86,4.38-7.25,7.51-10.19,3.15-2.94,6.78-5.29,10.9-7.02,4.13-1.74,8.49-2.25,13.07-2.25h11.76Z"/>
      <rect class="st3" x="256.27" y="435.04" width="16" height="64.78"/>
      <path class="st3" d="M294.82,451.46v18.9c0,2.17.53,4.16,1.58,5.96,1.04,1.81,2.36,3.34,3.93,4.61,1.57,1.27,3.29,2.26,5.15,2.98,1.86.73,3.65,1.09,5.35,1.09h25.06v14.82h-25.06c-4,0-7.92-.85-11.78-2.54-3.87-1.68-7.31-3.91-10.31-6.69-3.01-2.77-5.43-5.92-7.27-9.44-1.83-3.52-2.75-7.13-2.75-10.8v-37.49h-22.44l6.77-11.43h31.78v15.38h24.46l-8.25,14.64h-16.21Z"/>
    </g>
    <rect class="st4" x="377.62" y="460.05" width="119.25" height="12.46"/>
    <rect class="st4" x="26.02" y="460.05" width="119.25" height="12.46"/>
  </g>
  <g>
    <path class="st2" d="M28.36,69.54c-10.79-4.61-23.9.24-26.52,10.22-.02.64-.03,1.28,0,1.92,0,.03.09.88.06.87.07.34.14.67.24,1.02.15.52.19,1.05.13,1.58.1.52.12,1.07.04,1.6.14.1.24.24.23.49.32,4.97,2.84,7.58,4.57,11.35,3.03,6.57,6.72,11.53,10.91,16.48-.43,1.48-1.42,5-.11,6.26,1.22-1.72,2.81-4.05,1.98-6.65-.39-1.23-2.27-2.51-3.25-3.81-1.74-2.31-3.8-5.3-5.45-8.45-1.65-3.13-3.6-6.32-4.81-9.27-1.83-4.45-3.04-11.7.08-16.28,4.11-.95,8.81-2.88,14.36-3.08,4.56-.17,8.59.68,11.82-.21.13-2.4-2.6-3.32-4.28-4.04"/>
    <path class="st2" d="M35.25,78.42c5.69,2.49,8.96,15.54,2.96,20.3-1.64-6.49-.56-13.79-3.81-19.06,0-.21,0-.42,0-.62.28-.21.63-.33.84-.61"/>
    <g>
      <path class="st2" d="M49.8,137.08c-1.13.34-1.26,1.98-1.97,3.34-.86,1.6-2.53,3.52-3.55,5.29-2.26,3.9-4.62,8.48-7.53,13.14-1.12,1.8-2.77,4.16-4.14,6.07-1.18,1.64-3.28,5.84-4.33,6.07-.92.2-2.96-1.07-4.58-1.87-4.63-2.27-8.08-5.22-10.41-9.5-4.78-8.78-4.36-24.54,5.28-27.66.06-.57-.04-1.46-.15-2.38-7.27,2.65-12.39,9.12-13.58,18.19-.92,7.01,2.82,12.07,5.87,16.56,3.17,4.68,6.82,6.78,11.57,9.53,2.34,1.36,4.77,3.08,7.45,2.71,5.13-9.62,11.99-18.47,17.6-28.03,1.07-1.83,5.47-8.11,4.79-10.22-.23-.71-1.29-1.53-2.29-1.23Z"/>
      <path class="st2" d="M41.54,124.28c-.21-.15-.39-.32-.54-.52-1.31-.81-2.2-2.02-3.3-3.03-1.29-1.06-1.87-2.79-3.08-3.78-.19-.37-.68.54-.75.92.2.34.42.71.64,1.09-1.47.76-.53,2.6-.55,3.97-.02,1.34-.54,2.97-.64,4.65-.25,4.49-.25,9.98-1.16,13.59,0,.21-.14.33-.33.43-.3.61-.76,1.13-1.38,1.48-.68.47-1.48.89-2.24,1.56-.79.7-1.58,1.46-2.45,2.38-1.75,1.85-5.01,4-4.55,6.07,2.99-1.47,5.75-3.59,8.25-5.63,2.59-2.11,5.41-3.97,7.34-6.77-1.12-5.91-.08-13.27-.38-18.52,1.88,3.1,4.11,6.51,6.48,9.1,2.16,2.35,5.64,5.61,8.81,4.63-.45-6.01-7.42-7.18-10.15-11.62Z"/>
    </g>
    <path class="st2" d="M67.57,172.92c-4.04-.41-3.5-.32-9.31.48-1.6.22-3.7.39-4.77.12-4.39-1.09-7.56-4.73-11.29-6.25-.68.78-1.97.92-2.32,2.05,1.3,1.42,3.06,2.7,5.32,4.27,1.77,1.23,3.65,3.12,5.13,3.43.65.14,1.56-.4,2.49-.37,6.36.19,11.43-1.77,16.14-3.68-.67-.37-1.07.67-1.38-.05Z"/>
    <path class="st2" d="M93.04,84.09c5.66.59.95,5.53-1.55,7.28-2.51,1.77-6.54,3.96-9.53,4.58-5.06,1.04-9.76-2.05-15.83-1.95-6.14.1-10.97,2.1-14.33,4.53-2.81,2.03-5.3,3.66-6.66,6.21-.83.16-.88-.4-1.88-.08-.01-.1-.02-.2-.03-.3,1.16-2.49,4.43-4.75,7.01-6.86.82-.67,1.43-1.63,2.28-2.23,2.32-1.63,6.49-3.26,9.61-3.83,5.56-1.01,9.6.62,13.91,1.57,9.4-.15,13.43-4.67,17.01-8.92"/>
    <path class="st2" d="M85.04,174.54c-1.87-.16-1.96,1.65-2.63,2.79-.97,1.65-2.55,3.63-4.04,5.45-1.47,1.79-3,3.78-4.49,5.12-3.92,3.52-7.92,6.42-13.47,6.28,0,.02-5.81,1.32-5.81,1.34l-2.07,1.11c1.21,1.61,10.08-.64,12.57-1.16,1.06-.22,2.46-1.03,3.82-1.51,3.28-1.14,5.19-2.29,7.51-4.44,1.18-1.1,2.5-2.03,3.54-3.09,2.25-2.27,4.17-5.91,5-8.43.33-1.02.68-2.35.06-3.47"/>
    <path class="st2" d="M53.95,188.53c9.89-3.84,18.53-9.12,22.79-19.39,1.01-.51,2.09-.34,3.23.26-.47,5.38-4.15,7.1-6.29,10.59-3.96,3.73-14.01,10.96-19.55,12.77-1.09.36-4.8-1.96-.19-4.23"/>
    <path class="st2" d="M68.25,158.48c-.14-.05-.27-.13-.4-.21-.24-.12-.46-.27-.65-.45-.22-.15-.41-.32-.53-.54-2.56-2.47-5.88-4.71-7.98-7.28-.6-.73-1.12-1.24-1.85-1.08-.3.6-.28,1.09-.16,1.55.02.02.05.04.07.07.24.42.35.89.51,1.34.33.3.56.65.74,1.03.2.26.4.51.59.78.05.04.09.1.14.14,3.65,2.75,6.41,6.36,11.58,7.64.96-1.75-1.17-2.24-2.05-3"/>
    <path class="st2" d="M70.14,153.29c.42.41.9.73,1.37,1.07,1.68.64,2.93,2.53,5.33,2.62-.45-2.17-2.72-2.58-3.74-4.21-.21-.16-.38-.35-.55-.55-.25-.18-.48-.39-.68-.62-.02-.01-.04-.02-.05-.04-.18-.15-.34-.32-.5-.5-.28-.14-.55-.3-.8-.5-.32-.19-.64-.36-.94-.59-.34-.25-.62-.5-.89-.74-.23-.14-.44-.3-.62-.48-.23-.14-.45-.31-.67-.52-1.23-.5-2.29-1.54-3.85-1.71.87,2.93,3.62,4.03,5.57,5.91.36.27.7.55,1.02.86"/>
    <path class="st2" d="M66.09,129.35c-2.71.88-1.32,6.25,3.12,4.26,1.67-.75-2.61-2.33-3.12-4.26"/>
    <path class="st2" d="M111.28,93.43c.18.48.55.8.86,1.17-2.52,2.05-5.28,3.69-7.71,5.8-2.85,2.47-4.56,5.94-7.41,8.44-1.74,3.52-4.9,5.67-6.19,9.62-4.9.84-13.79,1.15-18.01-1.28-.66-2.83,4.1-3.07,7.48-2.84,2.42.17,5.39,1.35,7.23.94,1.6-.35,4.67-4.74,5.59-6,3.38-4.64,6.71-8.21,10.83-12.01,2-1.84,4.41-3.84,7.32-3.83"/>
    <path class="st2" d="M89.8,162c.45.65.1,2.07.18,3.08.53.8,1.66,1.02,2.08,1.93-3.02,4.56-8.46-5.11-2.26-5.01"/>
    <path class="st2" d="M97.54,119.65c-.65,4.08-.71,7.86-1.12,12.05-.96,9.81-3.78,18.02-5.03,26.74-.02.21.07.26.08.43.12.01.23.03.35.04,2.52-3.96,4.59-12.8,5.63-21.22.38-3.05.87-6.63.91-9.55.05-2.88-.05-6.44-.82-8.48Z"/>
    <path class="st2" d="M97.56,163.74c4.05-1.2,7.2,6.36,1.26,6.07-.02-2.27-2.06-3.9-1.26-6.07"/>
    <path class="st2" d="M97.28,175.67c.45,2.26-.81,4.86-1.84,7.34-1.94,4.7-4.81,10.02-6.93,15.51-1.02,2.63-1.47,5.4-2.88,7.55-1.86.55-3.91.29-5.93.18-.16-2.95,1.62-5.77,2.78-8.65,3.23-8.09,3.61-16.1,6.7-24.23.83-.14.76,1.17,1.78,1.48-1.64,7.78-3.2,16.31-6.42,24.13.13.12.07.3.26.4,2.28-5.15,5.15-12.26,8.01-18.84,1.24-2.85,1.75-5.46,4.48-4.87"/>
    <path class="st2" d="M103.59,123.11c1.12.29.76,2.31.89,3.36,1.36,10.67.24,24.11-3.37,31.65-.15,0-.31,0-.46-.02-.03-.16-.15-.21-.15-.42.38-4.85,1.37-10.46,1.76-15.62.29-3.82.56-7.72.77-11.46.14-2.55-.34-5.24.56-7.5"/>
    <path class="st2" d="M111.99,201c1.4,1.93-.27,4.28-1.25,5.3-.87,2.2-1.99,4.73-3.04,7.29-1.03,2.47-2.44,4.76-3.22,7.09-1.18,3.49-.61,10-.33,16.33.11,2.49-.18,5.23-.27,7.75-.33,9.33-1.13,18.84-2.18,26.89-.4,3.08-1.26,7.79-.22,10.88.79,2.36,3.15,3.78,4.78,3.9,3.75.27,7.88-3.25,12.23-2.61.9.13,2.53.4,1.95,2.6-.74,1.3-2.82,1.39-4.39,1.73-1.52.33-3.02.89-4.59,1.32-1.54.41-3.53.3-5.44.53-3.61.44-6.37,1.73-8.74-.53-.23-3.61,1.18-7.83,1.52-10.75.11-1,0-2.22.09-3.35.26-3.29.87-6.62,1.24-10.11.36-3.43.46-7.07.71-10.7.52-7.43.55-14.86.38-22.6-.06-2.7.26-5.54.55-8.39.13-1.28.45-2.67.53-4,.09-1.52-.34-3.11-.12-4.17.32-1.58,2.83-4.43,3.95-5.88,1.53-1.97,3.18-4.03,4.14-5.47.7-1.05.73-2.44,1.73-3.03"/>
    <path class="st2" d="M108.48,85.65c-3.17-1.16-6.01-2.58-8.75-4.08-.46.28-1.06.46-1.79.46-.29,0-.55-.03-.8-.08-.01.36-.03.76.12,1.11,1.01,2.3,7.05,4.48,11.2,3.6.12-.51.12-.52.03-1.02"/>
    <path class="st2" d="M107.32,178.44c.18,2.17-1.29,4.04-2.38,5.8-1.8,2.9-3.13,5.71-5.13,8.26,1.25,3.67,2.78,10.95,3.04,15.92.08,1.41.24,4.4-1.54,4.77-2.11-7.04-4.11-14.19-5.21-22.22,1.64-3.11,4.49-5.24,6.78-8.23,1.29-1.68,2.25-4.25,4.43-4.3"/>
    <path class="st2" d="M114.55,73.42c.05.05.1.1.16.1.01.05.04.1.08.16-.57,2.66-2.23,5.88-4.77,7.8-.13-.16-.26-.32-.38-.49.66-2.44,2.42-4.76,2.8-7.23.72-.2,1.46-.66,2.12-.35"/>
    <path class="st2" d="M112.28,56.73c3.26-2.15,7.01-2.58,10.49-2.2,2.27,1.46,3.31,4.48,4.56,6.13.01.06.04.12.08.18,0,0,0,0,.01,0,.02.08.04.16.07.23,0,.07,0,.15.05.23,0,.03,0,.06,0,.09,0,.01-.01.02-.02.03,0,.01,0,.03,0,.04-.01.1.01.18.05.25-.08,1.48-.03,2.97-.15,4.45-1.77,4.44-11.09,10.21-12.6,4.92.71-.56.84-1.19,1.25-1.78,3.28-.66,6.89-2.51,8.29-6.01-.3-.78-.05-1.49-.17-2.24-1.52-3.7-5.59-4.26-8.03-3.44-4.83,1.63-7.54,8.62-9.29,11.82-.85,2.96-1.2,5.98-3.15,8.82-1.28-.97.25-2.81-.09-4.16,2.35-5.2,2.27-13.17,8.64-17.36"/>
    <path class="st2" d="M133.79,110.02c2,.79,1.55,3.74,1.85,5.68.71,4.53,1.42,8.04,1.74,13.19.26,4.24.77,6.45-.32,9.8-1.53,4.71-3.55,9.11-4.62,14.52-.42,2.12-1.21,4.37-1.32,6.02-.3,4.39.45,9.09.5,13.58.16,13.79-.17,26.73-.25,40.07,0,1.7.45,3.34.46,5.02.02,2.93-.39,5.8-.48,8.75-.08,2.81.21,5.54.05,8.36-.98,17.71-2.16,34.25-4.11,51.26-1.4.1-2.44,1.39-3.53.55-.24-6.96,1.55-15.61,2.29-23.33.92-9.82.35-20.37,1.16-30.87,1.38-17.84,0-34.55-.1-52.61-.04-7.77-.37-15.72.52-22.95.65-5.35,2.57-10.43,4.27-14.94.57-1.51,1.49-2.85,1.83-4.35,1.51-6.66.41-13.45-.07-19-.13-1.45-.31-3.11-.46-4.6-.14-1.3-.7-3.32.59-4.16"/>
    <path class="st2" d="M172.42,63.38c-.16-1.17-.96-6.63-2.15-6.33-.16.85.28,2.83.02,4.82-.28,2.12-.97,4.56-2.19,6.74-5.7,10.24-12.86,26.38-15.78,30.52-.5.72-6.37,9.11-6.75,9.85-1.87,3.81-3.68,7.99-5.23,11.79.31,1.14,1.05,1.76,1.82,2.34,1.25-2.4,2.89-8.37,4.5-10.99,1.24-2,26.24-45.18,25.74-48.74Z"/>
    <path class="st2" d="M176.19,61.33c.24,0,.48-.03.72-.06,2.59-4.67,6.51-7.95,8.79-12.95-.51-.39-.51-1.28-1.43-1.27-3.37,3.94-6.45,8.2-8.58,13.45.08.27.17.54.34.7.05.05.11.09.16.13"/>
    <path class="st2" d="M167.8,28.18c1.66.02,2.58,1.51,4.51,3.21,2.79,2.48,7.14,6.4,10.23,8.11,2.16,1.2,5.31,1.14,5.11,4.48-2.17,1.55-5.73-1.05-8.46-2.66-4.11-2.41-7.71-6.26-9.98-10.2-.53-.3-.94-.72-1.43-1.07,0-.62.02-1.25.03-1.88"/>
    <path class="st2" d="M52.89,129.1c-1.03-2.31,1.3-4.37,2.28-6.76,1.49-3.65,3.25-7.96,1.57-12.47-1.79-1.09-4.29-2.26-6.18-1.47-4.29,1.79-.69,9.82-1.84,12.47-1.31.82-3.5-1.36-4.01-2.52-2.46-5.57,1.69-13.89,7.8-13.72,2.01.06,3.23,1.43,5.63,2.01,6.37,6.75,1.31,19.48-5.25,22.47"/>
    <path class="st2" d="M180.88,7.99c.66.48.34,1.72.16,2.51.14.96,1.5.73,1.84,1.49-.2,2.07-2.22,2.37-3.35,2.02-2.75-.83-2.45-6.14,1.35-6.03"/>
    <path class="st2" d="M189.97,17.92c-1.77-.39-3.01-1.29-3.31-3.11-.03,0-.05,0-.07,0-.26.49-.68.89-.9,1.42-.28.69-.43,1.41-.8,2.06,0,0,0,0,0,0,1.24,1.55,4.31,2.85,5.54.54-.19-.28-.33-.58-.45-.92"/>
    <path class="st2" d="M209.73,2c-4.91-1.38-7.79.33-12.07,2.29-3.66,1.67-7.51,2.6-9.46,4.88.35.3.64.65.92,1.03,4.58-1.86,8.79-5.07,14.74-4.75.57,3.39-4.07,5.12-3.88,8.7,3.13-1.45,7.64-4.87,9.47-8.18.56-1.02.59-2.59.28-3.96"/>
    <path class="st2" d="M160.76,31.85c-1.75.18-1.84,5.1-2.35,7.14-1.26,5.07-4.2,10.07-6.07,14.25-.35.78-.25,1.44-.55,2.07-.6,1.26-1.6,2.45-2.3,3.74-.73,1.36-1.55,2.63-2.29,3.93-3.04,5.27-6.56,9.79-9.52,14.94-1.53,2.66-3.33,4.97-4.94,7.47-3.17,4.94-6.84,9.7-10.37,14.17-1.76,2.23-3.4,4.76-5.1,7.09-1.94,2.66-4.66,5.12-6.06,8.04.08.35.12.72.13,1.08,2.75-.96,4.66-3.76,6.57-6.08,4.07-4.96,7.6-10.17,11.25-15.48,1.87-2.71,4.01-5.04,5.63-7.83,2.8-2.24,4.51-7.28,7.38-10.07.65-1.52,1.81-2.58,2.82-3.92,4.84-6.47,8.97-13.71,12.38-21.51.7-1.59,1.12-3.38,1.8-5.07.66-1.63,1.83-3,2.31-4.49.59-1.84,1.77-9.73-.71-9.47"/>
    <path class="st2" d="M181.21,20.69c.6.42,1.02.21,1.44.44-.94,4.12-4.22,5.79-6.98,8.02-.24.95-1,1.37-2.1,1.42-.04-.17-.21-.21-.2-.42.33-4.68,5.94-5.7,7.84-9.46"/>
    <path class="st2" d="M188.17,25.62c.49.08.85.26,1.24.44.16,1.65-.87,2.01-1.72,3.31-1.78,2.73-2.27,5.72-5.09,6.38-.15-.2-.37-.32-.61-.43,1.43-3.88,3.46-7.15,6.18-9.7"/>
    <path class="st2" d="M193.75,21.32c1.61.61,2.5,1.32,4.33,1.33.11,3.81-6.46,1.72-4.33-1.33"/>
    <path class="st1" d="M129.51,294.7c-.17-.06-.32-.14-.46-.22-.21-.07-.42-.15-.63-.21-2.17-.02-3.66-1.66-5.31-.45,2.22,1.67,7.6,2.92,5.48,6.87-1.37,2.55-9.23,2.79-13.98,2.41-5.67-.45-14.1-.39-17.33-.77,3.36-.22,13.06-3.8,15.46-4.95,2.24-1.07,10.4-2.16,10.58-4-1.76-.02-12.77,2.7-14.15,3.26-3.76,1.5-5.06,2.28-8.75,2.9-.54.09-1.14.29-1.45.55l-.52-.34s-8.02,2.74-8.66,3.87c-.2.35.1,1.6.1,1.6l9.75-1.1c2.37.16,4.52.46,6.42.65,1.35.14,2.78-.02,4.09.12,1.53.15,2.93.74,4.57.87,7.46.58,15.45-.82,17.77-4.32,1.97-2.97-.61-5.2-2.97-6.74Z"/>
  </g>
  <path class="st3" d="M88.09,214.72h-.96v46.79l-30.6-46.79h-28.13v91.63h28.76v-29.02l-1.15-20.87,32.93,37.86c.53.63,4.96.16,5.03-.66.26-2.83-.13-3.18,0-5.29.4-6.8.9-8.76.98-9.92.34-5.22.47-8.14.47-8.14l.71-7.52,1.37-17.47v-17.72l1.24-13.07-10.66.19Z"/>
</svg>